<svg height="204pt" preserveAspectRatio="xMidYMid meet" viewBox="0 0 471 204" width="471pt" xmlns="http://www.w3.org/2000/svg"><g transform="matrix(.1 0 0 -.1 0 204)"><path d="m570 1723c-162-96-263-256-277-438-6-83 14-190 52-270l23-50 1 61c1 64 29 171 61 235 30 57 97 136 150 176l50 37v138c0 76-3 138-7 138-5 0-28-12-53-27z"/><path d="m1050 1523c0-200-3-233-19-268-38-82-103-125-193-125-64 0-127 29-160 73-35 46-40 63-47 147l-6 75-34-53c-130-203-115-416 45-682 52-86 54-93 39-110s-13-20 27-53c24-19 58-42 77-52 75-38 160 4 290 141 143 150 259 348 302 512 45 170-9 366-138 496-45 46-156 126-175 126-4 0-8-102-8-227z"/><path d="m4023 1270c-138-29-213-117-221-258-5-95 11-151 61-208 49-55 95-80 179-94 125-22 248 20 306 105 49 72 47 75-63 75-55 0-95-4-95-10 0-15-56-40-90-40-61 0-110 45-110 100 0 19 8 20 201 20h202l-7 62c-8 80-37 138-91 186-64 56-177 82-272 62zm137-135c28-15 57-52 47-61-2-3-53-3-113-2l-109 3 37 38c41 42 86 49 138 22z"/><path d="m1670 1096c0-90 5-187 10-216 13-71 50-117 118-148 47-21 70-25 151-25 148-1 224 30 268 108 21 38 23 51 23 243v202h-95-95v-174c0-161-1-175-21-200-19-24-27-27-72-24-41 2-54 8-71 31-19 26-21 44-25 198l-3 169h-94-94z"/><path d="m2450 1180v-79l105-3 105-3-125-187-125-188h275 275v80 80h-110c-60 0-110 2-110 4 0 3 51 83 113 178s117 179 121 186c6 9-49 12-258 12h-266z"/><path d="m3130 1180v-80h105c58 0 105-3 105-6s-48-79-106-167c-59-89-113-172-122-184l-14-23h271 271v80 79l-110 3-110 3 125 188 125 187h-270-270z"/><path d="m692 380c-97-9-125-24-66-37 49-10 390-11 427 0 36 10 34 24-5 30-63 11-273 15-356 7z"/></g></svg>